<?xml version="1.0" encoding="utf-8"?>
<!-- Generator: Adobe Illustrator 22.1.0, SVG Export Plug-In . SVG Version: 6.00 Build 0)  -->
<svg version="1.1"
	 id="Layer_1" xmlns:cc="http://creativecommons.org/ns#" xmlns:dc="http://purl.org/dc/elements/1.1/" xmlns:rdf="http://www.w3.org/1999/02/22-rdf-syntax-ns#" xmlns:svg="http://www.w3.org/2000/svg"
	 xmlns="http://www.w3.org/2000/svg" xmlns:xlink="http://www.w3.org/1999/xlink" x="0px" y="0px" viewBox="0 0 100 125"
	 style="enable-background:new 0 0 100 125;" xml:space="preserve">
<path d="M50,5C27.2,5,8.6,23.5,8.6,46.4c0,0.9,0,1.7,0.1,2.5c5.5-1.5,11.1-3,16.6-4.5C26.3,31.7,37,21.6,50,21.6
	c13.7,0,24.8,11.1,24.8,24.8S63.7,71.1,50,71.1c-3.2,0-6.2-0.6-9-1.7l11.7-3.1l-11.2-6.4c-7.5,2-15.1,4-22.6,6.1
	c2,7.5,4,15.1,6.1,22.6L36.2,95l-2.9-10.8c5.1,2.3,10.8,3.5,16.8,3.5c22.8,0,41.4-18.5,41.4-41.3S72.8,5,50,5z"/>
</svg>
